<svg id="Livello_1" data-name="Livello 1" xmlns="http://www.w3.org/2000/svg" viewBox="0 0 105.9 100.85"><title>d10</title><g id="Layer0_0_FILL" data-name="Layer0 0 FILL"><path d="M87.75,63.35,105.9,63l-.55-23.35L55.9,1.35l31.85,62M54,81.65V100.8L103.75,65l-16.4.4L54,81.65M52,100.8V81.65L18.5,65.4,2.15,65,52,100.8M53,0,20.15,64,53,80,85.8,64,53,0M39.75,47.8v-2l6.45-2.4h.35V61.25h-2.3v-15L39.7,47.9m14.7-2.7a4.84,4.84,0,0,1,4.25-1.9,4.91,4.91,0,0,1,4.25,1.85q1.35,1.8,1.35,5.65v2.9c0,2.67-.45,4.63-1.35,5.9a4.77,4.77,0,0,1-4.2,1.95,4.9,4.9,0,0,1-4.25-1.9A10,10,0,0,1,53.05,54V51q0-3.9,1.35-5.8m6.8,1.25a2.76,2.76,0,0,0-2.55-1.3,2.65,2.65,0,0,0-2.5,1.3,8.16,8.16,0,0,0-.85,4v3.6a8.41,8.41,0,0,0,.85,4.3A2.84,2.84,0,0,0,58.7,59.7a2.66,2.66,0,0,0,2.45-1.3,7.5,7.5,0,0,0,.85-4v-3.7a8.44,8.44,0,0,0-.8-4.2M18.15,63.35,50,1.4.9,40.1,0,63Z" transform="translate(0 0.05)"/></g></svg>