<svg id="Livello_1" data-name="Livello 1" xmlns="http://www.w3.org/2000/svg" viewBox="0 0 124.45 74.95"><title>d100</title><g id="Layer0_0_FILL" data-name="Layer0 0 FILL"><path d="M47.15,59.15,68.3,40.8,31.3,0,19.6,53.8l27.55,5.35M44.7,37.8a3.63,3.63,0,0,1,2.85.25,3.82,3.82,0,0,1,1.75,2.3l.25.85a3.47,3.47,0,0,1-2.09,4.44l-.36.11a3.51,3.51,0,0,1-2.8-.25,3.61,3.61,0,0,1-1.75-2.3l-.25-.85a3.73,3.73,0,0,1,.2-2.8,3.54,3.54,0,0,1,2.2-1.75m-3-7.5,1.5.45L38.8,46.5l-1.45-.4L41.7,30.3m-3.35,3.75a3.64,3.64,0,0,1-.2,2.8,3.71,3.71,0,0,1-6.7-.47c0-.11-.07-.22-.1-.33l-.2-.8a3.52,3.52,0,0,1,2.11-4.51l.29-.09A3.48,3.48,0,0,1,38,32.79a2.77,2.77,0,0,1,.12.41l.25.85m-2.8-1.8a1.88,1.88,0,0,0-1.6-.2,1.67,1.67,0,0,0-1.15,1,2.32,2.32,0,0,0,0,1.7l.25.9A2.24,2.24,0,0,0,34,37a1.74,1.74,0,0,0,1.55.2,2,2,0,0,0,1.2-1,2.61,2.61,0,0,0,0-1.7l-.3-.9a2.36,2.36,0,0,0-.9-1.35M46.7,39.4a1.81,1.81,0,0,0-1.55-.2,2,2,0,0,0-1.2,1,2.61,2.61,0,0,0,0,1.7l.3.9a2.22,2.22,0,0,0,1,1.35,1.74,1.74,0,0,0,1.55.2,1.8,1.8,0,0,0,1.2-1,2.48,2.48,0,0,0,0-1.7l-.25-.9a2.22,2.22,0,0,0-1-1.35m33.6-13.5-.1-.3-2-6.8-6.5-2.7h0L34.5.6,70.1,39.8l13.15-3.9L80.35,26m-61.8,29.7-11.7,2.9L50.35,75l-3.7-13.8-28.1-5.5M4.2,57.1l13.45-3.3L28.8,2.1,0,39.7,4.15,57.05M89.9,50.7l-2.65,9.75,31.5-11.9-8-1.9L89.9,50.7m-2-.55-7.8-6.75L76,48.55,85.25,60l2.7-9.8m-8.7-8.75h0l2.35-2.9L70.2,41.85,48.5,60.65l3.7,13.8L73.9,47.9l.1-.15h0l5.25-6.4m6.1-5.25a1.08,1.08,0,0,1,.1.35.77.77,0,0,1-.15.55.18.18,0,0,1-.1.15v.05l-3.8,4.6,8,6.9,20.3-3.9L101.15,4.9,82.3,25.7l3,10.45m36,11,3.1-12.75L103.55,7l8.1,37.8,9.7,2.35M97.85,5.5,74.7,15.15l4.75,2a1.67,1.67,0,0,1,.4.25,1.25,1.25,0,0,1,.2.4L81.7,23.4Z" transform="translate(0 0)"/></g></svg>