<svg id="Livello_1" data-name="Livello 1" xmlns="http://www.w3.org/2000/svg" viewBox="0 0 97.8 102.8"><title>d12</title><g id="Layer0_0_FILL" data-name="Layer0 0 FILL"><path d="M30.15,79.2,19.65,93.05,49,102.8l29.2-9.75-10-13.85h-38M49,19.55,18.7,41.45,30.3,77.2H67.85l11.6-35.7L49,19.5m5.6,22.65a5.64,5.64,0,0,1,3.9,1.3A4.42,4.42,0,0,1,59.9,46.9c0,1.73-1.12,3.82-3.35,6.25L51.8,58.3h8.9v1.85H49.15v-1.6L55.3,51.7a13.71,13.71,0,0,0,1.85-2.5,4.09,4.09,0,0,0,.55-2.05A3,3,0,0,0,54.6,44,3.43,3.43,0,0,0,52,45a3.59,3.59,0,0,0-1,2.65h-2.3a5.25,5.25,0,0,1,1.55-4,6,6,0,0,1,4.25-1.5m-12.4.2h.35V60.2H40.25V45.15L35.7,46.8v-2l6.45-2.4M16.75,42,0,36.35V67l18,25L28.45,78,16.75,42M48,18V0L18.65,9.55.6,34.35,17.4,40,48,17.85M97.8,36.3,81.45,42,69.7,78.05l10,13.9,18-25V36.3M80.75,40l16.4-5.6-18-24.8L50,0V17.8Z"/></g></svg>