<svg id="Livello_1" data-name="Livello 1" xmlns="http://www.w3.org/2000/svg" viewBox="0 0 84.45 96.6"><title>d20</title><g id="Layer0_0_FILL" data-name="Layer0 0 FILL"><path d="M36.75,93.7,11.65,67,1,73l35.75,20.8m11,0,35.75-20.4-10.4-6.1L47.7,93.7M.3,29.8,0,71.15l10.65-6L.3,29.8m.3-6.05L12.15,63.2l28.4-48.75L.6,23.8M70.5,67l-56.35-.25L42.2,96.65,70.5,67m-57-2.25L71.05,65,42.55,15l-29,49.7m24.6-20.8a2.24,2.24,0,0,0-1.8-.75,2.78,2.78,0,0,0-2.1.8,2.82,2.82,0,0,0-.75,2.1H31.7A4.08,4.08,0,0,1,33,42.9a4.64,4.64,0,0,1,3.35-1.2,4.49,4.49,0,0,1,3.15,1.1,3.46,3.46,0,0,1,1.15,2.75q0,2.1-2.7,5l-3.8,4.15H41.3v1.45H32V54.8l4.9-5.45a10.79,10.79,0,0,0,1.5-2.05,3,3,0,0,0,.45-1.6,2.42,2.42,0,0,0-.7-1.8m9.5-2.2a4,4,0,0,1,3.4,1.45,8.24,8.24,0,0,1,1.1,4.55v2.35a8.15,8.15,0,0,1-1.1,4.7A3.77,3.77,0,0,1,47.7,56.3a3.93,3.93,0,0,1-3.4-1.5,7.84,7.84,0,0,1-1.15-4.5V47.85a8,8,0,0,1,1.1-4.65,3.93,3.93,0,0,1,3.4-1.5m0,1.45a2.12,2.12,0,0,0-2,1A6.42,6.42,0,0,0,45,47.4v2.85a7.19,7.19,0,0,0,.65,3.45,2.22,2.22,0,0,0,2.05,1.1,2.16,2.16,0,0,0,1.95-1,6.73,6.73,0,0,0,.7-3.3v-3a6.38,6.38,0,0,0-.65-3.3,2.2,2.2,0,0,0-2.05-1.1M72.55,63.4l11.65-39-39.55-10,27.9,48.9m11.9-32.85L74,65.5l10.45,6.1v-41M43.65.05l0,12.1,35.45,9L43.65.1m-2,12.1,0-12.15L5.8,20.5Z" transform="translate(0 -0.05)"/></g></svg>