<svg id="Livello_1" data-name="Livello 1" xmlns="http://www.w3.org/2000/svg" viewBox="0 0 74.3 84.8"><title>d8</title><g id="Layer0_0_FILL" data-name="Layer0 0 FILL"><path d="M37.2,0,.8,63l72.75.15L37.25,0m5.1,37.05a6,6,0,0,1-2.25,2,6.29,6.29,0,0,1,2.65,2,5.46,5.46,0,0,1,1,3.15,5.61,5.61,0,0,1-1.85,4.4A7.29,7.29,0,0,1,37,50.25a7.07,7.07,0,0,1-4.9-1.65,5.61,5.61,0,0,1-1.85-4.4,5.53,5.53,0,0,1,.95-3.15,6.27,6.27,0,0,1,2.6-2.1,5.86,5.86,0,0,1-2.25-2,5.15,5.15,0,0,1-.8-2.8,5.63,5.63,0,0,1,1.7-4.3A6.62,6.62,0,0,1,37,28.3a6.71,6.71,0,0,1,4.6,1.55,5.63,5.63,0,0,1,1.7,4.3A4.9,4.9,0,0,1,42.4,37M37,40a3.79,3.79,0,0,0-4.05,3.51,4,4,0,0,0,0,.49A3.79,3.79,0,0,0,34,46.85a4,4,0,0,0,3,1,4.09,4.09,0,0,0,3-1A3.79,3.79,0,0,0,41.05,44a4,4,0,0,0-1.15-3A4.13,4.13,0,0,0,37,39.9m3.6-5.85a3.58,3.58,0,0,0-1-2.65,3.74,3.74,0,0,0-5.15,0,3.64,3.64,0,0,0-1,2.7,3.49,3.49,0,0,0,1,2.6,3.35,3.35,0,0,0,2.55,1,3.58,3.58,0,0,0,2.65-1,3.62,3.62,0,0,0,.95-2.6M2.7,65,37.1,84.8,71.5,65.15,2.7,65M34.45.8.1,20.55,0,60.2,34.45.75m39.8,59.6,0-39.75L40,.75Z" transform="translate(0)"/></g></svg>